Coordinates
version=1
nRows=6
nColumns=36
inDegrees=yes

Units are S.I. units (second, meters, Newtons, ...)
If the header above contains a line with 'inDegrees', this indicates whether rotational values are in degrees (yes) or radians (no).

endheader
time	pelvis_tilt	pelvis_list	pelvis_rotation	pelvis_tx	pelvis_ty	pelvis_tz	hip_flexion_r	hip_adduction_r	hip_rotation_r	knee_angle_r	knee_angle_r_beta	ankle_angle_r	subtalar_angle_r	mtp_angle_r	hip_flexion_l	hip_adduction_l	hip_rotation_l	knee_angle_l	knee_angle_l_beta	ankle_angle_l	subtalar_angle_l	mtp_angle_l	lumbar_extension	lumbar_bending	lumbar_rotation	arm_flex_r	arm_add_r	arm_rot_r	elbow_flex_r	pro_sup_r	arm_flex_l	arm_add_l	arm_rot_l	elbow_flex_l	pro_sup_l
      3.86666670	    -14.57735497	     -2.25010910	     -2.39255409	     -0.52274666	      1.24509408	     -0.03846979	     10.64545778	      1.62616640	      4.36309997	     43.06471615	      0.75162109	    -10.40363087	    -12.50384308	     -7.49999987	      7.72548178	     -3.07108387	      6.25519049	     40.91268284	      0.71406102	    -16.15868130	    -14.34195393	     -7.49999987	     -5.22784858	      4.96409502	     -0.27914236	     37.37316850	    -13.89977156	     13.34464184	    124.55359001	     99.04223552	     31.82630189	    -23.41996022	      0.98243058	    124.85643706	     92.17219034
      3.87083330	    -14.17450009	     -2.42651507	     -2.47897796	     -0.51432243	      1.24501269	     -0.03745866	     10.91685051	      1.74471381	      4.19479579	     44.42867241	      0.77542662	    -11.24350736	    -13.43797673	     -7.49999987	      7.55529986	     -3.27320936	      6.03796304	     41.58546325	      0.72580325	    -17.91108585	    -14.52399314	     -7.49999987	     -5.61226237	      5.14286637	     -0.45762321	     36.18246619	    -13.88174331	     13.23683359	    124.11983432	     98.92146852	     30.49121117	    -23.70090088	      0.60246880	    124.27285125	     92.04847449
      3.87500000	    -13.92202823	     -2.50076940	     -2.65300511	     -0.50454191	      1.25300396	     -0.03883056	     10.94341352	      1.79050436	      4.26836563	     44.99282781	      0.78527299	    -12.26777007	    -14.75148783	     -7.49999987	      7.33962375	     -3.17897153	      6.19518788	     41.69105950	      0.72764626	    -19.92296099	    -14.72768505	     -7.49999987	     -5.84761777	      5.29653230	     -0.70225383	     34.55664483	    -13.79328210	     13.11412885	    123.41043667	     98.76190600	     28.62083832	    -23.77339109	      0.07347832	    123.48303853	     91.80043798
      3.87916670	    -13.36537384	     -2.76735460	     -2.75040872	     -0.49988871	      1.25377955	     -0.03996515	     11.16716242	      1.84100597	      4.06915758	     46.22642766	      0.80680336	    -12.55181165	    -14.92463576	     -7.49999987	      7.15784417	     -3.34570633	      6.09480490	     42.22280211	      0.73692692	    -20.99537953	    -14.29000545	     -7.49999987	     -6.61692047	      5.60860565	     -0.90337367	     33.27575302	    -14.09025695	     13.13393780	    123.15160113	     98.73821029	     27.59004284	    -23.85756966	      0.07598905	    123.18344708	     91.76444295
      3.88333330	    -13.56336636	     -2.72602588	     -3.21215244	     -0.49123148	      1.25292584	     -0.03849455	     12.31933141	      1.79030869	      4.12834242	     48.10506169	      0.83959171	    -12.67756130	    -15.97357264	     -7.49999987	      7.62090257	     -3.25017169	      5.69959571	     43.00214224	      0.75052897	    -22.19993421	    -14.42370912	     -7.49999987	     -6.14364785	      5.66648350	     -0.95592711	     31.70278403	    -13.96787556	     12.76948007	    122.34604926	     98.53005445	     25.71959340	    -24.11496758	     -0.82248907	    122.29700674	     91.42420527
      3.88750000	    -13.56109041	     -2.91047380	     -3.34107233	     -0.48434776	      1.25790295	     -0.03659677	     13.13009151	      2.13054694	      4.12247120	     49.41146799	      0.86239280	    -12.48390294	    -16.44475853	     -7.49999987	      7.92005122	     -3.48364674	      5.74050981	     43.37268283	      0.75699612	    -22.56971819	    -13.52850443	     -7.49999987	     -6.13660771	      6.03824734	     -1.93845977	     31.06193988	    -13.52949549	     13.86742471	    120.85738816	     97.41509991	     22.83102128	    -24.68275074	     -2.66511516	    122.54323678	     89.38192903
